<svg version="1.1" id="Layer_1" xmlns="http://www.w3.org/2000/svg" xmlns:xlink="http://www.w3.org/1999/xlink" x="0px" y="0px"
	 viewBox="0 0 1125 1262" style="enable-background:new 0 0 1125 1262;" xml:space="preserve">
<style type="text/css">
	.st0{fill:#FFFFFF;}
</style>
<path class="st0" d="M-0.5,1121.5c36.87,73.58,75.73,96.6,106,103c107.81,22.78,157.44-92.56,269-99c52-3,79.9,39.42,141,53
	c67.52,15.01,90.69-34.18,182-32c73.98,1.76,81.31,34.6,136,25c71.3-12.51,78.6-71.77,143-89c85.99-23,114,64,148,44
	c76.71-45.12,119.02-273.95,0-1127c-375,0-750,0-1125,0C-0.5,373.5-0.5,747.5-0.5,1121.5z"/>
</svg>